HIERARCHY
ROOT root
{
	OFFSET 0.000000 0.000000 0.000000
	CHANNELS 6 Xposition Yposition Zposition Zrotation Yrotation Xrotation
	JOINT lhip
	{
		OFFSET 0.058581 -0.082280 -0.017664
		CHANNELS 3 Zrotation Yrotation Xrotation
		JOINT lknee
		{
			OFFSET 0.043451 -0.386469 0.008037
			CHANNELS 3 Zrotation Yrotation Xrotation
			JOINT lankle
			{
				OFFSET -0.014790 -0.426874 -0.037428
				CHANNELS 3 Zrotation Yrotation Xrotation
				JOINT ltoe
				{
					OFFSET 0.041054 -0.060286 0.122042
					CHANNELS 3 Zrotation Yrotation Xrotation
					End Site
					{
						OFFSET 0.000000 0.000000 0.000000
					}
				}
			}
		}
	}
	JOINT rhip
	{
		OFFSET -0.060310 -0.090513 -0.013543
		CHANNELS 3 Zrotation Yrotation Xrotation
		JOINT rknee
		{
			OFFSET -0.043257 -0.383688 -0.004843
			CHANNELS 3 Zrotation Yrotation Xrotation
			JOINT rankle
			{
				OFFSET 0.019056 -0.420046 -0.034562
				CHANNELS 3 Zrotation Yrotation Xrotation
				JOINT rtoe
				{
					OFFSET -0.034840 -0.062106 0.130323
					CHANNELS 3 Zrotation Yrotation Xrotation
					End Site
					{
						OFFSET 0.000000 0.000000 0.000000
					}
				}
			}
		}
	}
	JOINT lowerback
	{
		OFFSET 0.004439 0.124404 -0.038385
		CHANNELS 3 Zrotation Yrotation Xrotation
		JOINT upperback
		{
			OFFSET 0.004488 0.137956 0.026820
			CHANNELS 3 Zrotation Yrotation Xrotation
			JOINT chest
			{
				OFFSET -0.002265 0.056032 0.002855
				CHANNELS 3 Zrotation Yrotation Xrotation
				JOINT lowerneck
				{
					OFFSET -0.013390 0.211636 -0.033468
					CHANNELS 3 Zrotation Yrotation Xrotation
					JOINT upperneck
					{
						OFFSET 0.010113 0.088937 0.050410
						CHANNELS 3 Zrotation Yrotation Xrotation
						End Site
						{
							OFFSET 0.000000 0.000000 0.000000
						}
					}
				}
				JOINT lclavicle
				{
					OFFSET 0.071702 0.114000 -0.018898
					CHANNELS 3 Zrotation Yrotation Xrotation
					JOINT lshoulder
					{
						OFFSET 0.122921 0.045205 -0.019046
						CHANNELS 3 Zrotation Yrotation Xrotation
						JOINT lelbow
						{
							OFFSET 0.255332 -0.015649 -0.022946
							CHANNELS 3 Zrotation Yrotation Xrotation
							JOINT lwrist
							{
								OFFSET 0.265709 0.012698 -0.007375
								CHANNELS 3 Zrotation Yrotation Xrotation
								End Site
								{
									OFFSET 0.000000 0.000000 0.000000
								}
							}
						}
					}
				}
				JOINT rclavicle
				{
					OFFSET -0.082954 0.112472 -0.023707
					CHANNELS 3 Zrotation Yrotation Xrotation
					JOINT rshoulder
					{
						OFFSET -0.113228 0.046853 -0.008472
						CHANNELS 3 Zrotation Yrotation Xrotation
						JOINT relbow
						{
							OFFSET -0.260127 -0.014369 -0.031269
							CHANNELS 3 Zrotation Yrotation Xrotation
							JOINT rwrist
							{
								OFFSET -0.269108 0.006794 -0.006027
								CHANNELS 3 Zrotation Yrotation Xrotation
								End Site
								{
									OFFSET 0.000000 0.000000 0.000000
								}
							}
						}
					}
				}
			}
		}
	}
}
MOTION
Frames: 17
Frame Time: 0.033333
1.242563 0.732001 0.987101 -90.477874 -0.209508 85.018843 -1.146779 -2.334966 -1.094823 -2.184255 -8.870812 9.639775 2.945034 10.671515 -10.138996 0.000000 -0.000000 0.000000 0.191195 -1.600516 -0.897714 -2.073027 1.733756 10.655259 0.730693 -9.451151 -10.636517 0.000000 -0.000000 0.000000 -0.389964 3.158797 7.297808 0.016412 -2.276487 3.870209 -1.782219 0.788096 -3.746146 -0.036496 -1.537716 -7.285961 3.022118 -1.645037 5.556002 -30.788239 -6.427960 0.319780 -50.099700 -5.984681 16.577074 -0.584600 -20.930190 7.283026 -5.789025 -7.802568 6.749987 29.708551 8.872260 3.774911 54.291935 0.663313 18.746793 -4.326724 29.570385 8.671524 3.473587 6.263736 10.062142 
1.242825 0.732491 0.986985 -90.564898 -0.207429 85.096857 -1.078421 -2.267554 -1.184432 -2.211802 -8.782116 9.593662 3.007966 10.632392 -10.099006 0.000000 -0.000000 0.000000 0.267048 -1.585837 -1.080274 -2.113739 1.742855 10.771775 0.731820 -9.359765 -10.774586 0.000000 -0.000000 0.000000 -0.443848 3.235157 7.250077 0.060242 -2.279887 4.022021 -1.792984 0.822304 -3.827957 0.073120 -1.381751 -7.374741 3.026591 -1.602769 5.195867 -30.654861 -6.271285 0.143722 -50.506617 -5.952058 16.377447 0.106825 -20.880252 6.264509 -5.513722 -7.663537 6.666257 29.721264 8.754524 3.720202 54.530675 0.530218 18.559642 -5.327300 29.642812 7.896774 3.047871 6.273731 10.457837 
1.243082 0.732648 0.987236 -90.584553 -0.130373 85.146395 -0.974222 -2.288956 -1.314946 -2.228569 -8.702332 9.681233 3.006103 10.503925 -10.074379 0.000000 -0.000000 0.000000 0.333612 -1.679458 -1.168433 -2.075606 1.711406 10.766397 0.668810 -9.264078 -10.740530 0.000000 -0.000000 0.000000 -0.402247 3.293961 7.259195 0.113721 -2.321354 4.120784 -1.732843 0.762993 -3.889176 0.068497 -1.178710 -7.419303 2.984669 -1.532835 4.783213 -30.854134 -6.160463 0.218028 -50.681438 -5.816662 15.759367 1.220677 -21.144343 4.637285 -5.171110 -7.423666 6.253710 29.862259 8.664928 3.755874 54.428408 0.440025 18.054750 -6.595436 30.022671 6.664557 1.912127 6.150566 10.931899 
1.242963 0.732619 0.987312 -90.455809 -0.187163 85.106913 -1.092810 -2.328365 -1.233929 -2.142923 -8.701851 9.631582 2.978341 10.450777 -10.074643 0.000000 -0.000000 0.000000 0.259063 -1.571794 -1.058468 -2.055667 1.599678 10.707311 0.716867 -9.343161 -10.730556 0.000000 -0.000000 0.000000 -0.457755 3.222365 7.270137 0.093358 -2.286774 4.114540 -1.719530 0.682522 -3.688975 0.215183 -0.873848 -7.487333 2.851877 -1.676147 4.303090 -30.807310 -5.820596 0.162391 -50.720176 -5.952113 14.725980 2.140195 -21.388706 2.854504 -3.985251 -7.372942 5.685044 29.931171 8.366223 3.718893 54.453457 0.493989 17.366921 -8.259167 30.487603 5.142855 -1.030691 6.136537 12.143320 
1.242881 0.732758 0.987407 -90.453661 -0.158966 85.197512 -1.054773 -2.363229 -1.328051 -2.103879 -8.588651 9.615137 3.061343 10.428973 -10.001922 0.000000 -0.000000 0.000000 0.289443 -1.640722 -1.151456 -2.061180 1.568512 10.684480 0.738148 -9.303168 -10.721331 0.000000 -0.000000 0.000000 -0.390161 3.279623 7.203227 0.059037 -2.309081 4.111882 -1.753467 0.669262 -3.677542 0.262730 -0.746679 -7.440977 2.986437 -1.723660 4.060326 -30.730682 -5.631877 0.026739 -50.721782 -5.987399 14.308745 2.741268 -21.235611 2.001588 -3.913501 -7.404823 5.418907 29.731457 8.157359 3.628206 54.649546 0.333120 17.000117 -9.235669 30.770157 4.318162 -1.352513 6.172677 12.092965 
1.242842 0.732908 0.987525 -90.465442 -0.178762 85.322656 -1.027133 -2.372552 -1.475487 -2.157982 -8.704017 9.596898 3.041954 10.393419 -9.935546 0.000000 -0.000000 0.000000 0.295416 -1.667945 -1.281151 -2.089861 1.569193 10.666784 0.699139 -9.316620 -10.719974 0.000000 -0.000000 0.000000 -0.415098 3.286500 7.194259 0.065546 -2.363784 3.994504 -1.769402 0.715912 -3.705262 0.194564 -0.752191 -7.457640 3.100296 -1.606477 3.913547 -30.510198 -5.326645 -0.257654 -50.661224 -5.896632 14.105112 3.089631 -21.079335 0.987108 -4.098402 -7.265361 4.848762 29.573408 7.838869 3.387221 54.637369 0.347314 16.532228 -10.001548 30.861849 2.752851 -0.960299 6.156602 11.168605 
1.242886 0.733103 0.987597 -90.510664 -0.193737 85.379668 -1.050272 -2.368762 -1.466850 -2.113191 -8.713194 9.478876 3.077193 10.487147 -9.911963 0.000000 -0.000000 0.000000 0.305648 -1.688549 -1.385960 -2.089948 1.635609 10.707145 0.703737 -9.306820 -10.549456 0.000000 -0.000000 0.000000 -0.445339 3.325273 7.117886 0.070606 -2.340821 4.012637 -1.767822 0.710392 -3.701022 0.159168 -0.901690 -7.467390 3.091127 -1.575663 3.861600 -30.293412 -5.198702 -0.353650 -50.549772 -5.870322 14.038340 3.472168 -20.963695 0.438923 -4.273051 -7.052551 4.519104 29.263678 7.725644 3.296151 54.458914 0.449527 16.324002 -10.022009 30.864042 1.969063 -0.388926 5.870538 10.096811 
1.242740 0.733129 0.987808 -90.438298 -0.168877 85.368008 -1.088636 -2.302612 -1.409398 -1.970242 -8.744760 9.404601 2.978923 10.473306 -9.829618 0.000000 -0.000000 0.000000 0.347847 -1.675875 -1.285017 -2.111377 1.663254 10.579886 0.738011 -9.416085 -10.565303 0.000000 -0.000000 0.000000 -0.367941 3.252694 7.159287 0.040098 -2.417551 3.917389 -1.805995 0.721886 -3.653248 0.101792 -0.946474 -7.488300 3.133308 -1.598153 3.917865 -30.201403 -5.248188 -0.385430 -50.201707 -5.796586 13.897799 3.676146 -20.581485 0.310906 -4.241318 -6.942946 4.672482 29.167249 7.759450 3.266771 53.925352 0.482658 16.241396 -9.873544 30.890312 2.253422 -0.402475 5.902360 10.498949 
1.242978 0.733320 0.987947 -90.597080 -0.227506 85.395813 -1.125794 -2.199740 -1.419366 -1.981489 -8.798100 9.337534 3.015011 10.644008 -9.786314 0.000000 -0.000000 0.000000 0.310288 -1.601073 -1.417647 -2.112142 1.731051 10.720783 0.730706 -9.395399 -10.584850 0.000000 -0.000000 0.000000 -0.339344 3.213783 7.257893 -0.042127 -2.322674 3.818151 -1.865893 0.793537 -3.725896 -0.010518 -1.074410 -7.446455 3.163443 -1.595939 3.936902 -29.993091 -5.279149 -0.477143 -49.979191 -5.777304 13.885655 3.852517 -20.136081 0.032868 -4.463125 -6.730175 4.650994 28.971584 7.876174 3.287033 53.645614 0.597865 16.222402 -9.710804 30.568987 2.196008 -0.272205 5.795803 10.401292 
1.243231 0.733996 0.988058 -90.633304 -0.241168 85.230357 -1.149445 -2.095467 -1.071597 -1.915411 -8.990492 9.041388 3.081152 10.667166 -9.734698 0.000000 -0.000000 0.000000 0.390568 -1.529408 -1.259175 -2.181505 1.683775 10.746396 0.607625 -9.458688 -10.570926 0.000000 -0.000000 0.000000 -0.307444 3.131463 7.720016 -0.143690 -2.165830 3.522873 -1.866851 0.825337 -3.721228 -0.081993 -1.196391 -7.587962 3.258082 -1.510048 4.078001 -30.059697 -5.396720 -0.350698 -49.637210 -5.759039 13.740109 4.342561 -19.869203 -0.260779 -4.262146 -6.513166 4.644344 28.887603 8.087189 3.306545 53.552556 0.515564 16.051690 -10.380999 30.004845 1.401725 -0.115331 5.742369 9.566241 
1.242889 0.734467 0.988204 -90.559732 -0.258822 85.168182 -1.139381 -2.097166 -0.983382 -1.930686 -8.972382 9.065145 3.095997 10.617302 -9.777569 0.000000 -0.000000 0.000000 0.419475 -1.511151 -1.117164 -2.235291 1.615472 10.695259 0.628557 -9.456589 -10.692385 0.000000 -0.000000 0.000000 -0.412256 3.123630 7.712873 -0.135757 -2.164899 3.612424 -1.829984 0.824794 -3.696020 -0.067606 -1.107206 -7.506376 3.344229 -1.596993 3.739318 -29.880670 -5.221126 -0.413166 -49.694334 -5.780042 13.369733 5.077737 -19.948724 -0.673712 -4.836437 -6.860266 4.873040 28.917038 8.112076 3.337907 53.485986 0.524291 15.668860 -11.167589 29.662826 0.896967 0.532351 5.952861 9.887716 
1.242967 0.734924 0.988394 -90.433896 -0.275363 85.126053 -1.132335 -2.213453 -0.988047 -1.973287 -8.984757 9.145687 3.082412 10.647667 -9.769826 0.000000 -0.000000 0.000000 0.458807 -1.475045 -1.113039 -2.264555 1.578552 10.805937 0.538317 -9.562297 -10.664832 0.000000 -0.000000 0.000000 -0.527633 3.082925 7.833465 -0.088265 -2.258870 3.638069 -1.761562 0.893111 -3.620031 -0.142587 -1.141897 -7.676791 3.331233 -1.711329 3.331948 -29.667233 -4.860160 -0.605199 -49.635553 -5.906836 12.628132 5.694478 -20.751098 -1.988947 -5.982914 -6.547732 4.342032 28.969846 7.895013 3.267335 53.156120 0.576524 15.187165 -12.124894 29.820442 0.131499 1.455505 6.013803 10.188064 
1.242966 0.735280 0.988579 -90.238436 -0.255561 85.160562 -1.137544 -2.366900 -1.052016 -1.895700 -8.967405 9.178366 3.064372 10.609299 -9.721018 0.000000 -0.000000 0.000000 0.501719 -1.441156 -1.062450 -2.270286 1.363466 10.673928 0.544316 -9.653483 -10.674658 0.000000 -0.000000 0.000000 -0.552826 3.063568 7.903842 -0.099751 -2.346522 3.522435 -1.679735 0.873964 -3.392621 -0.268939 -0.938990 -7.608926 3.555637 -1.913367 2.709453 -28.951404 -4.384738 -0.865002 -49.425881 -6.020783 11.959026 6.543957 -21.456016 -2.512398 -7.435170 -7.129781 4.167039 28.635108 7.657382 3.119591 52.847851 0.468198 14.595407 -13.233344 30.238811 -0.551367 1.929389 6.187125 10.202412 
1.243087 0.735912 0.988933 -90.138455 -0.190734 85.247424 -1.045866 -2.372344 -1.207537 -1.808137 -8.887451 9.239913 3.039256 10.436382 -9.612237 0.000000 -0.000000 0.000000 0.613391 -1.616184 -1.121782 -2.261657 1.437005 10.570339 0.592741 -9.679020 -10.635905 0.000000 -0.000000 0.000000 -0.552946 3.277406 7.835689 0.011600 -2.537069 3.696728 -1.653247 0.834985 -3.285343 -0.409752 -0.846031 -7.739868 3.619783 -2.302319 2.020946 -28.022771 -4.180526 -1.571360 -48.374478 -6.373365 10.934821 7.184389 -20.900310 -4.204064 -8.227173 -6.926571 4.231790 28.091313 7.248355 2.668195 51.820116 0.415764 13.920017 -14.233741 31.115347 -1.095707 2.502399 6.524841 11.409684 
1.243362 0.736555 0.989345 -89.866243 -0.147316 85.395473 -0.944892 -2.420090 -1.511682 -1.833547 -9.030424 9.394587 3.055499 10.352910 -9.602148 0.000000 -0.000000 0.000000 0.671363 -1.753952 -1.240946 -2.198178 1.412146 10.490777 0.483940 -9.773431 -10.533182 0.000000 -0.000000 0.000000 -0.599549 3.448311 7.827668 0.124398 -2.877474 3.724497 -1.636213 0.721141 -3.250703 -0.655497 -0.748080 -7.835834 3.860424 -2.483366 1.697390 -27.043913 -4.595921 -2.020587 -46.462633 -6.474777 9.720338 8.407222 -18.900042 -7.396865 -8.600231 -6.843177 3.949026 27.549243 7.390773 2.302211 50.263158 0.248743 13.031397 -15.450463 31.334918 -2.688767 3.092906 6.753958 11.955162 
1.243063 0.737065 0.989706 -89.799853 -0.160112 85.550974 -0.959076 -2.265447 -1.675153 -1.771452 -9.359976 9.372425 2.944026 10.431886 -9.498404 0.000000 -0.000000 0.000000 0.625000 -1.966397 -1.364967 -2.099968 1.553713 10.379070 0.456409 -9.861899 -10.420128 0.000000 -0.000000 0.000000 -0.727250 3.600429 7.547804 0.226988 -3.140027 4.204596 -1.644043 0.660221 -3.459662 -0.786424 -0.778225 -7.756988 4.031146 -2.432774 1.438487 -26.076108 -4.795341 -2.558479 -43.803993 -6.346926 8.826097 9.922923 -17.056103 -9.896680 -7.571653 -6.694653 4.569113 27.007537 7.647661 1.882155 48.165667 0.223389 12.141137 -16.180093 30.814190 -4.604901 2.888768 7.210519 12.082324 
1.242953 0.737586 0.990036 -89.822361 -0.179350 85.739478 -0.952097 -2.192335 -2.008229 -1.741159 -9.415791 9.510998 2.922924 10.518369 -9.428078 0.000000 -0.000000 0.000000 0.577902 -2.157732 -1.651673 -1.974982 1.827738 10.426816 0.490799 -9.942531 -10.324418 0.000000 -0.000000 0.000000 -0.845713 3.813670 7.498561 0.334930 -3.378027 4.247766 -1.643956 0.610750 -3.523227 -0.871706 -0.690961 -7.432093 4.098906 -2.552505 1.070044 -24.488744 -4.447795 -3.488627 -41.502561 -6.194425 8.128994 10.947135 -15.444373 -12.313720 -6.615869 -6.075592 4.739040 26.161014 7.443182 1.138279 46.374707 0.317915 11.311287 -17.089796 30.073941 -6.370103 3.239646 7.096633 12.454141 
